HIERARCHY
ROOT root
{
	OFFSET 0.000000 0.000000 0.000000
	CHANNELS 6 Xposition Yposition Zposition Zrotation Yrotation Xrotation
	JOINT lhip
	{
		OFFSET 0.058581 -0.082280 -0.017664
		CHANNELS 3 Zrotation Yrotation Xrotation
		JOINT lknee
		{
			OFFSET 0.043451 -0.386469 0.008037
			CHANNELS 3 Zrotation Yrotation Xrotation
			JOINT lankle
			{
				OFFSET -0.014790 -0.426874 -0.037428
				CHANNELS 3 Zrotation Yrotation Xrotation
				JOINT ltoe
				{
					OFFSET 0.041054 -0.060286 0.122042
					CHANNELS 3 Zrotation Yrotation Xrotation
					End Site
					{
						OFFSET 0.000000 0.000000 0.000000
					}
				}
			}
		}
	}
	JOINT rhip
	{
		OFFSET -0.060310 -0.090513 -0.013543
		CHANNELS 3 Zrotation Yrotation Xrotation
		JOINT rknee
		{
			OFFSET -0.043257 -0.383688 -0.004843
			CHANNELS 3 Zrotation Yrotation Xrotation
			JOINT rankle
			{
				OFFSET 0.019056 -0.420046 -0.034562
				CHANNELS 3 Zrotation Yrotation Xrotation
				JOINT rtoe
				{
					OFFSET -0.034840 -0.062106 0.130323
					CHANNELS 3 Zrotation Yrotation Xrotation
					End Site
					{
						OFFSET 0.000000 0.000000 0.000000
					}
				}
			}
		}
	}
	JOINT lowerback
	{
		OFFSET 0.004439 0.124404 -0.038385
		CHANNELS 3 Zrotation Yrotation Xrotation
		JOINT upperback
		{
			OFFSET 0.004488 0.137956 0.026820
			CHANNELS 3 Zrotation Yrotation Xrotation
			JOINT chest
			{
				OFFSET -0.002265 0.056032 0.002855
				CHANNELS 3 Zrotation Yrotation Xrotation
				JOINT lowerneck
				{
					OFFSET -0.013390 0.211636 -0.033468
					CHANNELS 3 Zrotation Yrotation Xrotation
					JOINT upperneck
					{
						OFFSET 0.010113 0.088937 0.050410
						CHANNELS 3 Zrotation Yrotation Xrotation
						End Site
						{
							OFFSET 0.000000 0.000000 0.000000
						}
					}
				}
				JOINT lclavicle
				{
					OFFSET 0.071702 0.114000 -0.018898
					CHANNELS 3 Zrotation Yrotation Xrotation
					JOINT lshoulder
					{
						OFFSET 0.122921 0.045205 -0.019046
						CHANNELS 3 Zrotation Yrotation Xrotation
						JOINT lelbow
						{
							OFFSET 0.255332 -0.015649 -0.022946
							CHANNELS 3 Zrotation Yrotation Xrotation
							JOINT lwrist
							{
								OFFSET 0.265709 0.012698 -0.007375
								CHANNELS 3 Zrotation Yrotation Xrotation
								End Site
								{
									OFFSET 0.000000 0.000000 0.000000
								}
							}
						}
					}
				}
				JOINT rclavicle
				{
					OFFSET -0.082954 0.112472 -0.023707
					CHANNELS 3 Zrotation Yrotation Xrotation
					JOINT rshoulder
					{
						OFFSET -0.113228 0.046853 -0.008472
						CHANNELS 3 Zrotation Yrotation Xrotation
						JOINT relbow
						{
							OFFSET -0.260127 -0.014369 -0.031269
							CHANNELS 3 Zrotation Yrotation Xrotation
							JOINT rwrist
							{
								OFFSET -0.269108 0.006794 -0.006027
								CHANNELS 3 Zrotation Yrotation Xrotation
								End Site
								{
									OFFSET 0.000000 0.000000 0.000000
								}
							}
						}
					}
				}
			}
		}
	}
}
MOTION
Frames: 8
Frame Time: 0.033333
2.352936 1.321804 0.924095 -56.272615 2.765954 101.259463 6.338776 3.208682 6.442146 -7.548430 -20.314050 28.128023 -7.205695 13.240512 -16.627749 0.000000 -0.000000 0.000000 -7.246051 -2.370331 -63.443112 2.755536 -18.395437 47.903174 10.991465 -9.246653 -8.947939 0.000000 -0.000000 0.000000 2.255825 -13.449610 27.912091 1.732479 1.279524 -5.292922 0.830388 -3.694255 2.481175 -2.734527 6.292288 -7.705701 1.168464 3.573055 -2.165017 -19.135800 5.172757 -1.941710 -47.251592 -13.169654 12.141530 66.966722 -87.729419 -46.467250 14.659874 -13.000292 -8.893791 16.361713 -8.813351 2.392986 46.220180 -17.603487 12.632006 -0.334370 60.530989 11.983570 -0.689029 7.293653 -6.374490 
2.273839 1.282199 0.934997 -57.451017 1.317429 100.287703 3.496963 0.510066 5.266438 -8.354689 -18.505567 36.618324 -6.858884 13.312665 -0.636018 0.000000 -0.000000 0.000000 -7.373447 -2.485679 -60.341220 0.586744 -20.442080 41.308716 9.372911 -9.586436 -0.887764 0.000000 -0.000000 0.000000 2.131741 -13.399917 29.067676 0.351021 0.889478 -7.059062 1.116892 -3.113492 4.405904 -5.744928 3.664259 -5.540520 3.271594 5.677109 -2.820573 -18.435758 5.687727 -3.516903 -50.804935 -8.960280 14.218284 138.541026 -88.215015 -116.165876 13.212219 -12.770269 -8.483099 14.629881 -7.648656 2.642614 49.842837 -19.462530 9.880298 3.408540 61.085559 14.889717 -5.471301 8.498442 -2.477060 
2.194425 1.243913 0.938248 -59.532835 0.589403 99.148874 1.426264 -1.779127 1.852066 -10.621759 -14.398222 48.180276 -2.911584 12.538395 2.784250 0.000000 -0.000000 0.000000 -5.970781 -1.891103 -56.956753 -0.594097 -21.478453 40.425539 6.127473 -11.616909 4.161968 0.000000 -0.000000 0.000000 2.222641 -11.891152 29.959226 -0.096359 1.287188 -7.295710 0.956101 -2.826081 5.129915 -7.876597 0.842868 -1.663841 3.735637 7.505910 -4.123876 -19.044989 7.055854 -2.555876 -53.110533 -6.361537 14.306713 -166.940450 -87.740377 -168.668493 12.503798 -12.028459 -8.587544 14.191547 -7.023109 3.017315 52.475989 -19.083522 9.814386 0.818661 61.470238 12.943924 -3.503437 7.940777 -2.698621 
2.097918 1.200866 0.926722 -63.430979 0.364535 97.269700 0.937347 -2.533006 -5.832156 -10.955122 -5.517854 63.251329 0.337315 12.214461 -7.027612 0.000000 -0.000000 0.000000 -2.644606 -0.104636 -52.394576 -0.878259 -19.281895 45.792521 -1.211732 -12.201455 -1.423015 0.000000 -0.000000 0.000000 2.071464 -8.483008 32.929248 -0.308033 2.167314 -7.897298 0.781605 -2.615082 6.365536 -8.343797 -0.188200 0.270109 3.039524 7.341411 -2.979592 -21.188941 7.917071 -2.003192 -54.421136 -2.880178 13.218336 -133.422692 -88.194443 158.632711 11.932515 -11.245340 -9.237745 16.178806 -5.265322 1.561749 53.381930 -16.154128 10.103788 -3.852788 61.214738 8.010937 -4.369159 7.573693 -4.600986 
2.043254 1.178286 0.913610 -65.824787 0.373826 96.181865 1.780877 -2.552674 -12.562387 -9.361496 -0.312026 71.495416 1.867134 12.775993 -13.265264 0.000000 -0.000000 0.000000 -0.628998 1.202636 -50.063436 -1.677708 -16.979008 50.946046 -4.187434 -13.407628 -9.914462 0.000000 -0.000000 0.000000 1.401207 -6.515876 35.951935 -0.316224 2.636843 -8.390871 0.909179 -2.258715 6.853818 -7.754708 -0.062000 -0.185746 2.596328 6.789903 -1.585536 -22.870391 7.578442 -2.236388 -54.462260 -1.316395 12.457874 -53.285353 -89.224972 77.901165 12.113571 -10.297160 -10.415062 17.852939 -3.253510 0.270049 53.625926 -13.071575 10.313266 -8.030861 60.089766 2.818495 -5.479132 7.134278 -5.918685 
1.975148 1.150398 0.892971 -68.483954 0.637100 95.213006 4.478229 -3.165180 -23.918660 -6.371570 5.444559 80.245928 3.246675 13.896986 -20.588556 0.000000 -0.000000 0.000000 0.680408 3.575283 -47.623075 -2.522241 -14.664585 58.105797 -5.491170 -15.279186 -20.190125 0.000000 -0.000000 0.000000 0.358427 -4.513095 40.641742 -0.176865 2.953983 -8.607201 1.151268 -1.471965 6.612868 -6.921679 0.063888 -1.489520 2.337078 6.419859 -0.359517 -25.891557 5.507665 -2.507004 -53.438768 -0.450549 11.451347 33.823378 -85.921156 -10.777292 12.283350 -9.217772 -11.289365 20.537629 0.894866 -0.648458 53.098718 -7.643415 10.396289 -14.974770 57.802990 -5.774655 -5.931299 6.554793 -7.071905 
1.909668 1.121065 0.872016 -70.631206 1.134061 94.136005 8.125897 -3.534701 -35.603276 -4.326491 8.504177 83.825091 3.020234 13.482442 -26.842977 0.000000 -0.000000 0.000000 1.250158 5.577924 -44.873652 -3.316075 -13.516877 65.438484 -5.018715 -15.544327 -28.021052 0.000000 -0.000000 0.000000 -0.238160 -3.023312 46.346467 -0.116261 2.621860 -7.684050 1.355886 -0.571351 4.915244 -6.365730 0.392971 -3.358816 2.340729 6.115357 0.156489 -29.362370 1.175444 -2.359492 -51.441222 -0.606903 10.538999 49.240445 -80.810053 -27.504455 14.110024 -8.880616 -10.293352 23.361898 7.123269 -0.089861 50.698508 -1.544048 9.813562 -21.419404 55.488162 -13.235221 -7.926039 6.747714 -7.170430 
1.845709 1.089035 0.852014 -73.024798 1.157000 93.368575 11.149615 -3.258243 -45.998138 -4.126711 9.009265 80.754826 2.191992 11.724791 -30.332691 0.000000 -0.000000 0.000000 1.698232 6.074418 -41.586580 -3.651495 -10.999128 71.737413 -3.799839 -13.714062 -34.271242 0.000000 -0.000000 0.000000 -0.779828 -1.210356 52.394688 -0.439607 1.596128 -6.274780 1.621693 0.166603 2.673366 -6.021937 1.113584 -5.687443 2.584889 5.730460 0.066642 -31.699528 -4.447874 -2.002125 -49.335142 -1.899162 9.795394 58.226280 -75.916369 -37.033194 16.995962 -8.925479 -9.073844 24.788016 14.411267 1.173022 47.102061 5.089496 8.549552 -25.600780 53.191091 -17.654038 -10.514181 7.491993 -6.732177 
